<svg width="104" height="44" viewBox="0 0 104 44" fill="none" xmlns="http://www.w3.org/2000/svg">
<rect width="104" height="44" rx="10" fill="black"/>
<path fill-rule="evenodd" clip-rule="evenodd" d="M29.17 13.056C29.4463 12.9869 29.7348 12.9817 30.0134 13.0407C30.2921 13.0997 30.5536 13.2214 30.7782 13.3966C31.0028 13.5718 31.1845 13.7958 31.3096 14.0517C31.4347 14.3077 31.4998 14.5887 31.5 14.8735V16.3985H32.125C32.6223 16.3985 33.0992 16.5961 33.4508 16.9477C33.8025 17.2994 34 17.7763 34 18.2735V29.5235C34 30.0208 33.8025 30.4977 33.4508 30.8494C33.0992 31.201 32.6223 31.3985 32.125 31.3985H15.875C15.3777 31.3985 14.9008 31.201 14.5492 30.8494C14.1975 30.4977 14 30.0208 14 29.5235V18.2735C13.9998 17.7909 14.1858 17.3267 14.5192 16.9777C14.8526 16.6287 15.3078 16.4217 15.79 16.3998L29.17 13.056ZM20.9525 16.3985H30.25V14.8735C30.2498 14.7787 30.228 14.6852 30.1863 14.6C30.1446 14.5149 30.084 14.4403 30.0092 14.382C29.9344 14.3237 29.8473 14.2832 29.7546 14.2635C29.6618 14.2439 29.5658 14.2456 29.4737 14.2685L20.9525 16.3985ZM15.875 17.6485C15.7092 17.6485 15.5503 17.7144 15.4331 17.8316C15.3158 17.9488 15.25 18.1078 15.25 18.2735V29.5235C15.25 29.6893 15.3158 29.8483 15.4331 29.9655C15.5503 30.0827 15.7092 30.1485 15.875 30.1485H32.125C32.2908 30.1485 32.4497 30.0827 32.5669 29.9655C32.6842 29.8483 32.75 29.6893 32.75 29.5235V18.2735C32.75 18.1078 32.6842 17.9488 32.5669 17.8316C32.4497 17.7144 32.2908 17.6485 32.125 17.6485H15.875Z" fill="white"/>
<path fill-rule="evenodd" clip-rule="evenodd" d="M52 15.875C53.6245 15.875 55.1824 16.5203 56.331 17.669C57.4797 18.8176 58.125 20.3755 58.125 22C58.125 23.6245 57.4797 25.1824 56.331 26.331C55.1824 27.4797 53.6245 28.125 52 28.125C50.3755 28.125 48.8176 27.4797 47.669 26.331C46.5203 25.1824 45.875 23.6245 45.875 22C45.875 20.3755 46.5203 18.8176 47.669 17.669C48.8176 16.5203 50.3755 15.875 52 15.875ZM52 15C53.8565 15 55.637 15.7375 56.9497 17.0503C58.2625 18.363 59 20.1435 59 22C59 23.8565 58.2625 25.637 56.9497 26.9497C55.637 28.2625 53.8565 29 52 29C50.1435 29 48.363 28.2625 47.0503 26.9497C45.7375 25.637 45 23.8565 45 22C45 20.1435 45.7375 18.363 47.0503 17.0503C48.363 15.7375 50.1435 15 52 15Z" fill="#4BE75B"/>
<path fill-rule="evenodd" clip-rule="evenodd" d="M48.5 21.9994C48.5 21.8834 48.5461 21.7721 48.6281 21.6901C48.7102 21.608 48.8215 21.5619 48.9375 21.5619H54.0064L52.1278 19.6842C52.0871 19.6435 52.0548 19.5952 52.0328 19.5421C52.0108 19.4889 51.9994 19.432 51.9994 19.3744C51.9994 19.3169 52.0108 19.26 52.0328 19.2068C52.0548 19.1537 52.0871 19.1054 52.1278 19.0647C52.1684 19.024 52.2167 18.9918 52.2699 18.9697C52.323 18.9477 52.38 18.9364 52.4375 18.9364C52.495 18.9364 52.552 18.9477 52.6051 18.9697C52.6583 18.9918 52.7066 19.024 52.7473 19.0647L55.3723 21.6897C55.413 21.7303 55.4453 21.7786 55.4674 21.8318C55.4894 21.8849 55.5008 21.9419 55.5008 21.9994C55.5008 22.057 55.4894 22.114 55.4674 22.1671C55.4453 22.2203 55.413 22.2686 55.3723 22.3092L52.7473 24.9342C52.7066 24.9749 52.6583 25.0071 52.6051 25.0292C52.552 25.0512 52.495 25.0625 52.4375 25.0625C52.38 25.0625 52.323 25.0512 52.2699 25.0292C52.2167 25.0071 52.1684 24.9749 52.1278 24.9342C52.0871 24.8935 52.0548 24.8452 52.0328 24.7921C52.0108 24.7389 51.9994 24.682 51.9994 24.6244C51.9994 24.5669 52.0108 24.51 52.0328 24.4568C52.0548 24.4037 52.0871 24.3554 52.1278 24.3147L54.0064 22.4369H48.9375C48.8215 22.4369 48.7102 22.3909 48.6281 22.3088C48.5461 22.2268 48.5 22.1155 48.5 21.9994Z" fill="#4BE75B"/>
<path d="M72.8521 15.5271C72.3487 15.5271 71.866 15.7271 71.51 16.083C71.1541 16.4389 70.9542 16.9216 70.9542 17.425V19.9555H78.5457C78.7135 19.9555 78.8744 20.0222 78.993 20.1408C79.1117 20.2594 79.1783 20.4203 79.1783 20.5881C79.1783 20.9082 79.2796 21.403 79.5655 21.8003C79.8274 22.1646 80.2703 22.486 81.0762 22.486C81.8822 22.486 82.325 22.1646 82.5869 21.8003C82.8729 21.403 82.9741 20.9082 82.9741 20.5881C82.9741 20.4203 83.0408 20.2594 83.1594 20.1408C83.2781 20.0222 83.439 19.9555 83.6067 19.9555H91.1983V17.425C91.1983 16.9216 90.9983 16.4389 90.6424 16.083C90.2865 15.7271 89.8038 15.5271 89.3004 15.5271H72.8521Z" fill="white"/>
<path d="M91.1983 21.2207H84.1748C84.0841 21.6951 83.893 22.1446 83.6143 22.5391C83.1171 23.2299 82.2947 23.7512 81.0762 23.7512C79.8578 23.7512 79.0354 23.2299 78.5381 22.5391C78.2595 22.1446 78.0684 21.6951 77.9776 21.2207H70.9542V28.8123C70.9542 29.3156 71.1541 29.7983 71.51 30.1543C71.866 30.5102 72.3487 30.7101 72.8521 30.7101H89.3004C89.8038 30.7101 90.2865 30.5102 90.6424 30.1543C90.9983 29.7983 91.1983 29.3156 91.1983 28.8123V21.2207Z" fill="white"/>
</svg>
