<svg width="104" height="44" viewBox="0 0 104 44" fill="none" xmlns="http://www.w3.org/2000/svg">
<rect width="104" height="44" rx="10" fill="black"/>
<path fill-rule="evenodd" clip-rule="evenodd" d="M26.5528 16.1733H31.8163C32.1837 16.1733 32.547 16.2498 32.8832 16.398C33.2193 16.5463 33.5209 16.7629 33.7686 17.0342C34.0164 17.3054 34.2049 17.6253 34.3221 17.9735C34.4393 18.3216 34.4827 18.6904 34.4494 19.0563L33.6074 28.3092C33.5477 28.966 33.2447 29.5768 32.7577 30.0217C32.2708 30.4665 31.6352 30.7133 30.9756 30.7136H17.2972C16.6377 30.7133 16.0021 30.4665 15.5151 30.0217C15.0282 29.5768 14.7251 28.966 14.6655 28.3092L13.8234 19.0563C13.7671 18.444 13.9271 17.8313 14.2755 17.3247L14.2226 16.1733C14.2226 15.4722 14.5012 14.7998 14.997 14.304C15.4927 13.8082 16.1652 13.5297 16.8663 13.5297H21.7201C22.4212 13.5298 23.0935 13.8084 23.5892 14.3043L24.6837 15.3987C25.1793 15.8946 25.8517 16.1732 26.5528 16.1733ZM15.5524 16.332C15.8353 16.2289 16.1393 16.1733 16.4565 16.1733H23.5892L22.6547 15.2388C22.4068 14.9909 22.0707 14.8516 21.7201 14.8515H16.8663C16.5201 14.8514 16.1876 14.9873 15.9404 15.2297C15.6932 15.4722 15.5511 15.802 15.5445 16.1482L15.5524 16.332Z" fill="white"/>
<path fill-rule="evenodd" clip-rule="evenodd" d="M52 15.875C53.6245 15.875 55.1824 16.5203 56.331 17.669C57.4797 18.8176 58.125 20.3755 58.125 22C58.125 23.6245 57.4797 25.1824 56.331 26.331C55.1824 27.4797 53.6245 28.125 52 28.125C50.3755 28.125 48.8176 27.4797 47.669 26.331C46.5203 25.1824 45.875 23.6245 45.875 22C45.875 20.3755 46.5203 18.8176 47.669 17.669C48.8176 16.5203 50.3755 15.875 52 15.875ZM52 15C53.8565 15 55.637 15.7375 56.9497 17.0503C58.2625 18.363 59 20.1435 59 22C59 23.8565 58.2625 25.637 56.9497 26.9497C55.637 28.2625 53.8565 29 52 29C50.1435 29 48.363 28.2625 47.0503 26.9497C45.7375 25.637 45 23.8565 45 22C45 20.1435 45.7375 18.363 47.0503 17.0503C48.363 15.7375 50.1435 15 52 15Z" fill="#4BE75B"/>
<path fill-rule="evenodd" clip-rule="evenodd" d="M48.5 21.9994C48.5 21.8834 48.5461 21.7721 48.6281 21.6901C48.7102 21.608 48.8215 21.5619 48.9375 21.5619H54.0064L52.1278 19.6842C52.0871 19.6435 52.0548 19.5952 52.0328 19.5421C52.0108 19.4889 51.9994 19.432 51.9994 19.3744C51.9994 19.3169 52.0108 19.26 52.0328 19.2068C52.0548 19.1537 52.0871 19.1054 52.1278 19.0647C52.1684 19.024 52.2167 18.9918 52.2699 18.9697C52.323 18.9477 52.38 18.9364 52.4375 18.9364C52.495 18.9364 52.552 18.9477 52.6051 18.9697C52.6583 18.9918 52.7066 19.024 52.7473 19.0647L55.3723 21.6897C55.413 21.7303 55.4453 21.7786 55.4674 21.8318C55.4894 21.8849 55.5008 21.9419 55.5008 21.9994C55.5008 22.057 55.4894 22.114 55.4674 22.1671C55.4453 22.2203 55.413 22.2686 55.3723 22.3092L52.7473 24.9342C52.7066 24.9749 52.6583 25.0071 52.6051 25.0292C52.552 25.0512 52.495 25.0625 52.4375 25.0625C52.38 25.0625 52.323 25.0512 52.2699 25.0292C52.2167 25.0071 52.1684 24.9749 52.1278 24.9342C52.0871 24.8935 52.0548 24.8452 52.0328 24.7921C52.0108 24.7389 51.9994 24.682 51.9994 24.6244C51.9994 24.5669 52.0108 24.51 52.0328 24.4568C52.0548 24.4037 52.0871 24.3554 52.1278 24.3147L54.0064 22.4369H48.9375C48.8215 22.4369 48.7102 22.3909 48.6281 22.3088C48.5461 22.2268 48.5 22.1155 48.5 21.9994Z" fill="#4BE75B"/>
<path d="M72.125 15.5271C71.6216 15.5271 71.1389 15.7271 70.783 16.083C70.4271 16.4389 70.2271 16.9216 70.2271 17.425V19.9555H77.8187C77.9864 19.9555 78.1474 20.0222 78.266 20.1408C78.3846 20.2594 78.4513 20.4203 78.4513 20.5881C78.4513 20.9082 78.5525 21.403 78.8385 21.8003C79.1004 22.1646 79.5432 22.486 80.3492 22.486C81.1551 22.486 81.598 22.1646 81.8599 21.8003C82.1458 21.403 82.2471 20.9082 82.2471 20.5881C82.2471 20.4203 82.3137 20.2594 82.4324 20.1408C82.551 20.0222 82.7119 19.9555 82.8797 19.9555H90.4712V17.425C90.4712 16.9216 90.2713 16.4389 89.9154 16.083C89.5594 15.7271 89.0767 15.5271 88.5734 15.5271H72.125Z" fill="white"/>
<path d="M90.4712 21.2207H83.4478C83.3571 21.6951 83.166 22.1446 82.8873 22.5391C82.39 23.2299 81.5676 23.7512 80.3492 23.7512C79.1307 23.7512 78.3083 23.2299 77.8111 22.5391C77.5324 22.1446 77.3413 21.6951 77.2506 21.2207H70.2271V28.8123C70.2271 29.3156 70.4271 29.7983 70.783 30.1543C71.1389 30.5102 71.6216 30.7101 72.125 30.7101H88.5734C89.0767 30.7101 89.5594 30.5102 89.9154 30.1543C90.2713 29.7983 90.4712 29.3156 90.4712 28.8123V21.2207Z" fill="white"/>
</svg>
