<svg width="104" height="44" viewBox="0 0 104 44" fill="none" xmlns="http://www.w3.org/2000/svg">
<rect width="104" height="44" rx="10" fill="black"/>
<path fill-rule="evenodd" clip-rule="evenodd" d="M52 15.875C53.6245 15.875 55.1824 16.5203 56.331 17.669C57.4797 18.8176 58.125 20.3755 58.125 22C58.125 23.6245 57.4797 25.1824 56.331 26.331C55.1824 27.4797 53.6245 28.125 52 28.125C50.3755 28.125 48.8176 27.4797 47.669 26.331C46.5203 25.1824 45.875 23.6245 45.875 22C45.875 20.3755 46.5203 18.8176 47.669 17.669C48.8176 16.5203 50.3755 15.875 52 15.875ZM52 15C53.8565 15 55.637 15.7375 56.9497 17.0503C58.2625 18.363 59 20.1435 59 22C59 23.8565 58.2625 25.637 56.9497 26.9497C55.637 28.2625 53.8565 29 52 29C50.1435 29 48.363 28.2625 47.0503 26.9497C45.7375 25.637 45 23.8565 45 22C45 20.1435 45.7375 18.363 47.0503 17.0503C48.363 15.7375 50.1435 15 52 15Z" fill="#E65741"/>
<path fill-rule="evenodd" clip-rule="evenodd" d="M48.5 21.9994C48.5 21.8834 48.5461 21.7721 48.6281 21.6901C48.7102 21.608 48.8215 21.5619 48.9375 21.5619H54.0064L52.1278 19.6842C52.0871 19.6435 52.0548 19.5952 52.0328 19.5421C52.0108 19.4889 51.9994 19.432 51.9994 19.3744C51.9994 19.3169 52.0108 19.26 52.0328 19.2068C52.0548 19.1537 52.0871 19.1054 52.1278 19.0647C52.1684 19.024 52.2167 18.9918 52.2699 18.9697C52.323 18.9477 52.38 18.9364 52.4375 18.9364C52.495 18.9364 52.552 18.9477 52.6051 18.9697C52.6583 18.9918 52.7066 19.024 52.7473 19.0647L55.3723 21.6897C55.413 21.7303 55.4453 21.7786 55.4674 21.8318C55.4894 21.8849 55.5008 21.9419 55.5008 21.9994C55.5008 22.057 55.4894 22.114 55.4674 22.1671C55.4453 22.2203 55.413 22.2686 55.3723 22.3092L52.7473 24.9342C52.7066 24.9749 52.6583 25.0071 52.6051 25.0292C52.552 25.0512 52.495 25.0625 52.4375 25.0625C52.38 25.0625 52.323 25.0512 52.2699 25.0292C52.2167 25.0071 52.1684 24.9749 52.1278 24.9342C52.0871 24.8935 52.0548 24.8452 52.0328 24.7921C52.0108 24.7389 51.9994 24.682 51.9994 24.6244C51.9994 24.5669 52.0108 24.51 52.0328 24.4568C52.0548 24.4037 52.0871 24.3554 52.1278 24.3147L54.0064 22.4369H48.9375C48.8215 22.4369 48.7102 22.3909 48.6281 22.3088C48.5461 22.2268 48.5 22.1155 48.5 21.9994Z" fill="#E65741"/>
<path d="M15.8521 15.5271C15.3487 15.5271 14.866 15.7271 14.51 16.083C14.1541 16.4389 13.9542 16.9216 13.9542 17.425V19.9555H21.5457C21.7135 19.9555 21.8744 20.0222 21.993 20.1408C22.1117 20.2594 22.1783 20.4203 22.1783 20.5881C22.1783 20.9082 22.2796 21.403 22.5655 21.8003C22.8274 22.1646 23.2703 22.486 24.0762 22.486C24.8822 22.486 25.325 22.1646 25.5869 21.8003C25.8729 21.403 25.9741 20.9082 25.9741 20.5881C25.9741 20.4203 26.0408 20.2594 26.1594 20.1408C26.2781 20.0222 26.439 19.9555 26.6067 19.9555H34.1983V17.425C34.1983 16.9216 33.9983 16.4389 33.6424 16.083C33.2865 15.7271 32.8038 15.5271 32.3004 15.5271H15.8521Z" fill="white"/>
<path d="M34.1983 21.2207H27.1748C27.0841 21.6951 26.893 22.1446 26.6143 22.5391C26.1171 23.2299 25.2947 23.7512 24.0762 23.7512C22.8578 23.7512 22.0354 23.2299 21.5381 22.5391C21.2595 22.1446 21.0684 21.6951 20.9776 21.2207H13.9542V28.8123C13.9542 29.3156 14.1541 29.7983 14.51 30.1543C14.866 30.5102 15.3487 30.7101 15.8521 30.7101H32.3004C32.8038 30.7101 33.2865 30.5102 33.6424 30.1543C33.9983 29.7983 34.1983 29.3156 34.1983 28.8123V21.2207Z" fill="white"/>
<path fill-rule="evenodd" clip-rule="evenodd" d="M82.5528 16.1733H87.8163C88.1837 16.1733 88.547 16.2498 88.8832 16.398C89.2193 16.5463 89.5209 16.7629 89.7686 17.0342C90.0164 17.3054 90.2049 17.6253 90.3221 17.9735C90.4393 18.3216 90.4827 18.6904 90.4494 19.0563L89.6074 28.3092C89.5477 28.966 89.2447 29.5768 88.7577 30.0217C88.2708 30.4665 87.6352 30.7133 86.9756 30.7136H73.2972C72.6377 30.7133 72.0021 30.4665 71.5151 30.0217C71.0282 29.5768 70.7251 28.966 70.6655 28.3092L69.8234 19.0563C69.7671 18.444 69.9271 17.8313 70.2755 17.3247L70.2226 16.1733C70.2226 15.4722 70.5012 14.7998 70.997 14.304C71.4927 13.8082 72.1652 13.5297 72.8663 13.5297H77.7201C78.4212 13.5298 79.0935 13.8084 79.5892 14.3043L80.6837 15.3987C81.1793 15.8946 81.8517 16.1732 82.5528 16.1733ZM71.5524 16.332C71.8353 16.2289 72.1393 16.1733 72.4565 16.1733H79.5892L78.6547 15.2388C78.4068 14.9909 78.0707 14.8516 77.7201 14.8515H72.8663C72.5201 14.8514 72.1876 14.9873 71.9404 15.2297C71.6932 15.4722 71.5511 15.802 71.5445 16.1482L71.5524 16.332Z" fill="white"/>
</svg>
