<svg width="217" height="193" viewBox="0 0 217 193" fill="none" xmlns="http://www.w3.org/2000/svg">
<g clip-path="url(#clip0_38_55)">
<path d="M92.0857 178.615C142.943 178.615 184.171 163.856 184.171 145.649C184.171 127.443 142.943 112.684 92.0857 112.684C41.2282 112.684 0 127.443 0 145.649C0 163.856 41.2282 178.615 92.0857 178.615Z" fill="#373737"/>
<path d="M92.0857 193C142.943 193 184.171 178.241 184.171 160.034C184.171 141.828 142.943 127.068 92.0857 127.068C41.2282 127.068 0 141.828 0 160.034C0 178.241 41.2282 193 92.0857 193Z" fill="#373737"/>
<path d="M184.052 146.249H0V159.435H184.052V146.249Z" fill="#373737"/>
<path d="M92.0857 167.827C128.148 167.827 157.383 157.361 157.383 144.451C157.383 131.541 128.148 121.075 92.0857 121.075C56.0231 121.075 26.7886 131.541 26.7886 144.451C26.7886 157.361 56.0231 167.827 92.0857 167.827Z" fill="black"/>
<path d="M200.914 139.056C251.772 139.056 293 124.296 293 106.09C293 87.8833 251.772 73.124 200.914 73.124C150.057 73.124 108.829 87.8833 108.829 106.09C108.829 124.296 150.057 139.056 200.914 139.056Z" fill="#373737"/>
<path d="M200.914 153.44C251.772 153.44 293 138.681 293 120.475C293 102.268 251.772 87.5088 200.914 87.5088C150.057 87.5088 108.829 102.268 108.829 120.475C108.829 138.681 150.057 153.44 200.914 153.44Z" fill="#373737"/>
<path d="M292.88 106.689H108.829V119.876H292.88V106.689Z" fill="#373737"/>
<path d="M200.914 128.267C236.977 128.267 266.211 117.801 266.211 104.891C266.211 91.9813 236.977 81.5156 200.914 81.5156C164.852 81.5156 135.617 91.9813 135.617 104.891C135.617 117.801 164.852 128.267 200.914 128.267Z" fill="black"/>
<path d="M135.139 106.689C185.996 106.689 227.225 91.9302 227.225 73.7237C227.225 55.5171 185.996 40.7578 135.139 40.7578C84.2813 40.7578 43.0531 55.5171 43.0531 73.7237C43.0531 91.9302 84.2813 106.689 135.139 106.689Z" fill="#373737"/>
<path d="M135.139 121.074C185.996 121.074 227.225 106.315 227.225 88.1084C227.225 69.9019 185.996 55.1426 135.139 55.1426C84.2813 55.1426 43.0531 69.9019 43.0531 88.1084C43.0531 106.315 84.2813 121.074 135.139 121.074Z" fill="#373737"/>
<path d="M227.105 74.3232H43.0531V87.5096H227.105V74.3232Z" fill="#373737"/>
<path d="M135.139 95.901C171.201 95.901 200.436 85.4353 200.436 72.5252C200.436 59.6151 171.201 49.1494 135.139 49.1494C99.0762 49.1494 69.8417 59.6151 69.8417 72.5252C69.8417 85.4353 99.0762 95.901 135.139 95.901Z" fill="black"/>
<path d="M157.861 65.9317C208.719 65.9317 249.947 51.1724 249.947 32.9658C249.947 14.7593 208.719 0 157.861 0C107.004 0 65.7755 14.7593 65.7755 32.9658C65.7755 51.1724 107.004 65.9317 157.861 65.9317Z" fill="#373737"/>
<path d="M157.861 80.3164C208.719 80.3164 249.947 65.5571 249.947 47.3506C249.947 29.1441 208.719 14.3848 157.861 14.3848C107.004 14.3848 65.7755 29.1441 65.7755 47.3506C65.7755 65.5571 107.004 80.3164 157.861 80.3164Z" fill="#373737"/>
<path d="M249.827 33.5654H65.7755V46.7518H249.827V33.5654Z" fill="#373737"/>
<path d="M157.861 55.1432C193.924 55.1432 223.158 44.6775 223.158 31.7674C223.158 18.8573 193.924 8.3916 157.861 8.3916C121.799 8.3916 92.5641 18.8573 92.5641 31.7674C92.5641 44.6775 121.799 55.1432 157.861 55.1432Z" fill="black"/>
</g>
<defs>
<clipPath id="clip0_38_55">
<rect width="293" height="193" fill="white"/>
</clipPath>
</defs>
</svg>
