<svg width="157" height="150" viewBox="0 0 157 150" fill="none" xmlns="http://www.w3.org/2000/svg">
<rect width="216" height="216" rx="108" fill="#EBEBEB"/>
<path d="M128.403 83.624L89.3846 88.5141L87.9874 94.9887L95.6547 96.4029C100.664 97.5956 101.652 99.4016 100.562 104.394L87.9874 163.483C84.682 178.767 89.7765 185.957 101.754 185.957C111.04 185.957 121.826 181.663 126.716 175.768L128.215 168.68C124.807 171.679 119.832 172.871 116.527 172.871C111.841 172.871 110.137 169.583 111.347 163.79L128.403 83.624Z" fill="white"/>
<path d="M112.557 65.0769C121.967 65.0769 129.595 57.4485 129.595 48.0384C129.595 38.6284 121.967 31 112.557 31C103.147 31 95.5185 38.6284 95.5185 48.0384C95.5185 57.4485 103.147 65.0769 112.557 65.0769Z" fill="white"/>
</svg>
