<svg width="24" height="20" viewBox="0 0 24 20" fill="none" xmlns="http://www.w3.org/2000/svg">
<path fill-rule="evenodd" clip-rule="evenodd" d="M14.8087 3.08605H20.9268C21.3538 3.08601 21.7761 3.17496 22.1669 3.34723C22.5576 3.51951 22.9081 3.77132 23.1961 4.08661C23.484 4.4019 23.7031 4.77375 23.8394 5.17844C23.9756 5.58312 24.026 6.01176 23.9874 6.43702L23.0087 17.1921C22.9393 17.9555 22.587 18.6655 22.0211 19.1826C21.4551 19.6997 20.7163 19.9865 19.9496 19.9868H4.05061C3.28399 19.9865 2.54517 19.6997 1.97919 19.1826C1.41321 18.6655 1.06095 17.9555 0.99157 17.1921L0.0128612 6.43702C-0.0526121 5.72531 0.133309 5.01316 0.538322 4.42429L0.476865 3.08605C0.476865 2.27108 0.800612 1.48948 1.37689 0.913206C1.95316 0.336931 2.73476 0.0131836 3.54973 0.0131836H9.19152C10.0064 0.0133576 10.7879 0.33722 11.364 0.913534L12.6362 2.1857C13.2123 2.76202 13.9938 3.08588 14.8087 3.08605ZM2.02252 3.27043C2.35132 3.15058 2.70469 3.08605 3.07344 3.08605H11.364L10.2778 1.99979C9.98971 1.71164 9.59898 1.54971 9.19152 1.54962H3.54973C3.14725 1.54955 2.76082 1.70741 2.4735 1.98926C2.18619 2.27111 2.02095 2.65445 2.0133 3.05686L2.02252 3.27043Z" fill="#A84CF1"/>
<path fill-rule="evenodd" clip-rule="evenodd" d="M17 11.5132C17 12.9719 16.4205 14.3708 15.3891 15.4023C14.3576 16.4337 12.9587 17.0132 11.5 17.0132C10.0413 17.0132 8.64236 16.4337 7.61091 15.4023C6.57946 14.3708 6 12.9719 6 11.5132C6 10.0545 6.57946 8.65555 7.61091 7.6241C8.64236 6.59265 10.0413 6.01318 11.5 6.01318C12.9587 6.01318 14.3576 6.59265 15.3891 7.6241C16.4205 8.65555 17 10.0545 17 11.5132ZM11.8438 9.10693C11.8438 9.01577 11.8075 8.92833 11.7431 8.86387C11.6786 8.7994 11.5912 8.76318 11.5 8.76318C11.4088 8.76318 11.3214 8.7994 11.2569 8.86387C11.1925 8.92833 11.1562 9.01577 11.1562 9.10693V11.1694H9.09375C9.00258 11.1694 8.91515 11.2056 8.85068 11.2701C8.78622 11.3346 8.75 11.422 8.75 11.5132C8.75 11.6044 8.78622 11.6918 8.85068 11.7563C8.91515 11.8207 9.00258 11.8569 9.09375 11.8569H11.1562V13.9194C11.1562 14.0106 11.1925 14.098 11.2569 14.1625C11.3214 14.227 11.4088 14.2632 11.5 14.2632C11.5912 14.2632 11.6786 14.227 11.7431 14.1625C11.8075 14.098 11.8438 14.0106 11.8438 13.9194V11.8569H13.9062C13.9974 11.8569 14.0849 11.8207 14.1493 11.7563C14.2138 11.6918 14.25 11.6044 14.25 11.5132C14.25 11.422 14.2138 11.3346 14.1493 11.2701C14.0849 11.2056 13.9974 11.1694 13.9062 11.1694H11.8438V9.10693Z" fill="black"/>
</svg>
