<svg width="94" height="94" viewBox="0 0 94 94" fill="none" xmlns="http://www.w3.org/2000/svg">
<rect x="0.5" y="0.5" width="93" height="93" rx="11.5" fill="white"/>
<path d="M34.2339 43.4829H32.9618V50.0283H34.2339V43.4829Z" fill="#2A3362"/>
<path d="M39.1573 47.7059C39.1573 48.6093 38.5761 49.0151 37.8023 49.0151C37.0284 49.0151 36.5112 48.6093 36.5112 47.7517V45.4191H35.2391V48.047C35.2391 49.3555 36.0595 50.1206 37.424 50.1206C38.2816 50.1206 38.7609 49.8048 39.0823 49.4479H39.1565L39.2671 50.029H40.4373V45.4191H39.1573V47.7059Z" fill="#2A3362"/>
<path d="M51.636 49.1162C50.705 49.1162 50.1799 48.6922 50.097 48.0747H54.1344C54.153 47.9463 54.1623 47.8167 54.162 47.687C54.1533 46.0287 52.8986 45.3268 51.5562 45.3268C49.9983 45.3268 48.8272 46.2585 48.8272 47.7612C48.8272 49.1897 49.9525 50.1207 51.6391 50.1207C53.0502 50.1207 53.9899 49.4945 54.1841 48.5351H52.927C52.7699 48.9133 52.3182 49.1162 51.636 49.1162ZM51.557 46.332C52.3688 46.332 52.8386 46.6912 52.9128 47.2006H50.1246C50.2438 46.7126 50.7145 46.332 51.5531 46.332H51.557Z" fill="#2A3362"/>
<path d="M56.3233 46.0809H56.2443L56.1243 45.4168H54.9683V50.0291H56.2404V48.0471C56.2404 47.1524 56.756 46.6549 57.7154 46.6549C57.8897 46.6525 58.0638 46.6679 58.235 46.7007V45.4191H58.0573C57.2093 45.4191 56.6826 45.5944 56.3233 46.0809Z" fill="#2A3362"/>
<path d="M64.481 48.5903H64.4076L63.3195 45.705H62.0103L60.9411 48.5816H60.8582L59.8443 45.4191H58.5809L60.1388 50.029H61.5223L62.6286 47.0876H62.702L63.7901 50.029H65.1822L66.7402 45.4191H65.4768L64.481 48.5903Z" fill="#2A3362"/>
<path d="M71.8034 48.6867V47.1437C71.8034 45.8898 70.7429 45.3275 69.4242 45.3275C68.0234 45.3275 67.1477 45.9916 67.0276 46.9858H68.2997C68.3921 46.5523 68.7609 46.313 69.4242 46.313C70.0875 46.313 70.5297 46.5618 70.5297 47.0687V47.1864L68.4553 47.3443C67.4967 47.4185 66.7971 47.8425 66.7971 48.7459C66.7971 49.6769 67.5993 50.1191 68.7791 50.1191C69.7314 50.1191 70.3118 49.8538 70.6671 49.4534H70.7303C70.93 49.9035 71.3351 50.0275 71.7757 50.0275H72.3103V49.0886H72.1903C71.9226 49.0886 71.8034 48.9599 71.8034 48.6867ZM70.5305 48.1979C70.5305 48.9267 69.6619 49.166 68.9172 49.166C68.4103 49.166 68.0786 49.0373 68.0786 48.6867C68.0786 48.3708 68.3645 48.2168 68.7893 48.1797L70.5313 48.051L70.5305 48.1979Z" fill="#2A3362"/>
<path d="M76.5065 45.4191L75.022 48.7569H74.939L73.4364 45.4191H72.0624L74.2102 50.029H75.7318L77.8702 45.4191H76.5065Z" fill="#2A3362"/>
<path d="M81.9368 48.5351C81.7789 48.9133 81.328 49.1162 80.6458 49.1162C79.7148 49.1162 79.1897 48.6922 79.1068 48.0747H83.1442C83.1628 47.9463 83.1721 47.8167 83.1718 47.687C83.1631 46.0287 81.9084 45.3268 80.566 45.3268C79.0081 45.3268 77.8378 46.2585 77.8378 47.7612C77.8378 49.1897 78.9623 50.1207 80.6489 50.1207C82.06 50.1207 82.9997 49.4945 83.1939 48.5351H81.9368ZM80.5628 46.332C81.3746 46.332 81.8444 46.6912 81.9187 47.2006H79.1312C79.252 46.7126 79.7211 46.332 80.5597 46.332H80.5628Z" fill="#2A3362"/>
<path d="M30.8945 45.0796C30.8945 44.6737 31.1804 44.4992 31.5491 44.4992C31.7206 44.5008 31.8912 44.5255 32.0561 44.5727L32.2685 43.6504C31.9606 43.5415 31.6365 43.4854 31.3099 43.4845C30.3694 43.4845 29.6137 43.9828 29.6137 45.0148V45.4191H28.5161V46.4291H29.6137V50.0291H30.8945V46.4283H32.3285V45.4191H30.8945V45.0796Z" fill="#2A3362"/>
<path d="M43.2445 44.1194H42.06L41.9937 45.4191H40.9924V46.4291H41.97V48.7017C41.97 49.4755 42.3648 50.123 43.5493 50.123C43.8563 50.123 44.1625 50.0891 44.4621 50.0219V49.0515C44.2893 49.0902 44.1132 49.1119 43.9362 49.1162C43.3005 49.1162 43.2453 48.7569 43.2453 48.4798V46.4267H44.5087V45.4191H43.2445V44.1194Z" fill="#2A3362"/>
<path d="M47.2393 44.1194H46.0587L45.9924 45.4191H44.9888V46.4291H45.9664V48.7017C45.9664 49.4755 46.3612 50.123 47.5456 50.123C47.852 50.1221 48.1573 50.0874 48.4561 50.0196V49.0515C48.2833 49.0902 48.1072 49.1119 47.9302 49.1162C47.2945 49.1162 47.2393 48.7569 47.2393 48.4798V46.4267H48.5066V45.4191H47.2393V44.1194Z" fill="#2A3362"/>
<path d="M10.8084 43.3084C10.8084 42.5685 11.0248 41.9368 11.4788 41.4828L12.2685 42.2724C11.3896 43.1481 12.1571 45.8708 14.6595 48.3756C17.1619 50.8803 19.8861 51.647 20.7642 50.7697L21.5538 51.5594C20.0725 53.0407 16.6984 51.9897 13.8738 49.1644C11.9147 47.2045 10.8084 44.9809 10.8084 43.3084Z" fill="#009A46"/>
<path d="M15.7879 52.24C15.048 52.24 14.4163 52.0237 13.9615 51.5696L14.7511 50.78C15.6284 51.6573 18.3511 50.8898 20.8558 48.3858C23.3606 45.8819 24.1265 43.1592 23.2492 42.2819L24.0389 41.4922C25.521 42.9736 24.4692 46.3477 21.6439 49.1723C19.684 51.1345 17.4604 52.24 15.7879 52.24Z" fill="#FF5805"/>
<path d="M21.9052 48.0423C21.4259 46.662 20.4468 45.187 19.1478 43.8888C16.3233 41.0635 12.9492 40.0117 11.4678 41.4938C11.3628 41.5997 11.4536 41.861 11.6715 42.079C11.8895 42.2969 12.1508 42.3869 12.2558 42.2819C13.1339 41.4046 15.8566 42.1721 18.3606 44.6769C19.545 45.8613 20.4278 47.184 20.8534 48.4079C21.2262 49.481 21.1898 50.3465 20.7555 50.7808C20.6497 50.8858 20.7413 51.148 20.9585 51.3651C21.1756 51.5823 21.4378 51.6739 21.5436 51.5681C22.3024 50.8092 22.4311 49.5553 21.9052 48.0423Z" fill="#F5AFCB"/>
<path d="M24.0373 41.4938C23.2768 40.7334 22.0245 40.6047 20.5099 41.1314C19.1304 41.6099 17.6546 42.5899 16.3564 43.888C13.5319 46.7126 12.4801 50.0867 13.9615 51.5689C14.0673 51.6739 14.3286 51.5831 14.5466 51.3659C14.7645 51.1488 14.8553 50.8866 14.7495 50.7808C13.8699 49.9035 14.6398 47.1808 17.1445 44.6761C18.329 43.4916 19.6516 42.6088 20.8756 42.1832C21.9487 41.8113 22.8141 41.8468 23.2492 42.2811C23.3542 42.3861 23.6164 42.2953 23.8335 42.0774C24.0507 41.8595 24.1423 41.5989 24.0373 41.4938Z" fill="#FF9B00"/>
<rect x="0.5" y="0.5" width="93" height="93" rx="11.5" stroke="#EBEBEB"/>
</svg>
