<svg width="94" height="94" viewBox="0 0 94 94" fill="none" xmlns="http://www.w3.org/2000/svg">
<rect x="0.5" y="0.5" width="93" height="93" rx="11.5" fill="white"/>
<g clip-path="url(#clip0_0_353)">
<path d="M71.3044 27L63.0012 28.7668V62.3366H71.3044V27Z" fill="#56BD82"/>
<mask id="mask0_0_353" style="mask-type:luminance" maskUnits="userSpaceOnUse" x="7" y="27" width="80" height="47">
<path d="M87 27H7V74H87V27Z" fill="white"/>
</mask>
<g mask="url(#mask0_0_353)">
<path d="M47.6631 37.0351C45.129 37.0351 42.6519 37.7876 40.5449 39.1973C38.4379 40.6071 36.7957 42.6108 35.8259 44.9551C34.8562 47.2995 34.6025 49.8791 35.0968 52.3678C35.5912 54.8565 36.8115 57.1426 38.6033 58.9368C40.3952 60.7311 42.6782 61.953 45.1635 62.4481C47.6489 62.9431 50.2251 62.689 52.5662 61.718C54.9074 60.7469 56.9084 59.1025 58.3163 56.9927C59.7241 54.8828 60.4756 52.4023 60.4756 49.8649C60.4753 46.4623 59.1253 43.1992 56.7225 40.7932C54.3198 38.3872 51.0611 37.0354 47.6631 37.0351ZM47.6631 54.0221C46.842 54.0221 46.0393 53.7783 45.3566 53.3215C44.6738 52.8647 44.1417 52.2154 43.8275 51.4558C43.5133 50.6961 43.431 49.8602 43.5912 49.0538C43.7514 48.2474 44.1468 47.5066 44.7274 46.9252C45.3081 46.3438 46.0478 45.9479 46.8532 45.7875C47.6585 45.6271 48.4933 45.7094 49.2519 46.0241C50.0105 46.3387 50.6589 46.8716 51.1151 47.5552C51.5713 48.2389 51.8148 49.0426 51.8148 49.8649C51.8148 50.9674 51.3774 52.0248 50.5988 52.8045C49.8202 53.5841 48.7642 54.0221 47.6631 54.0221Z" fill="#56BD82"/>
<path d="M47.6631 65.6855C48.4842 65.6855 49.2869 65.9293 49.9696 66.3861C50.6524 66.8429 51.1845 67.4922 51.4987 68.2519C51.813 69.0115 51.8952 69.8474 51.735 70.6538C51.5748 71.4602 51.1794 72.201 50.5988 72.7824C50.0182 73.3638 49.2784 73.7597 48.4731 73.9201C47.6677 74.0805 46.833 73.9982 46.0743 73.6836C45.3157 73.3689 44.6673 72.8361 44.2111 72.1524C43.7549 71.4688 43.5115 70.665 43.5115 69.8428C43.5115 68.7402 43.9489 67.6828 44.7275 66.9031C45.506 66.1235 46.562 65.6855 47.6631 65.6855Z" fill="#56BD82"/>
<path d="M29.1883 43.6521C30.208 41.9986 30.7685 40.1026 30.8117 38.1597C30.855 36.2168 30.3796 34.2976 29.4345 32.6003C28.4894 30.9029 27.1089 29.489 25.4356 28.5045C23.7624 27.52 21.857 27.0006 19.9162 27H7V62.3366H21.5308C23.6925 62.3358 25.8051 61.6915 27.6003 60.4856C29.3955 59.2797 30.7922 57.5666 31.6129 55.5641C32.4336 53.5615 32.6413 51.3599 32.2095 49.2389C31.7778 47.1179 30.7262 45.1733 29.1883 43.6521ZM15.3148 35.3145H19.9278C20.616 35.3145 21.2759 35.5882 21.7626 36.0755C22.2492 36.5628 22.5226 37.2237 22.5226 37.9128C22.5226 38.6019 22.2492 39.2628 21.7626 39.75C21.2759 40.2373 20.616 40.5111 19.9278 40.5111H15.3148V35.3145ZM21.5423 54.0221H15.3148V48.8256H21.5423C22.2305 48.8256 22.8905 49.0993 23.3771 49.5866C23.8637 50.0738 24.1371 50.7347 24.1371 51.4238C24.1371 52.1129 23.8637 52.7738 23.3771 53.2611C22.8905 53.7484 22.2305 54.0221 21.5423 54.0221Z" fill="#56BD82"/>
<path d="M86.9885 45.8231V37.5086H82.8368V31.1573L74.5335 32.9241V54.4378C74.5335 59.5074 77.6818 62.429 82.3179 62.6715C82.364 62.6715 82.4216 62.6831 82.4678 62.6831H82.5485C82.6523 62.6831 82.7446 62.6946 82.8483 62.6946H82.9521C84.3664 62.6883 85.7572 62.3312 87 61.6553V55.5349C86.3949 55.6994 85.7703 55.781 85.1433 55.7774C83.4826 55.7774 82.8483 54.3224 82.8483 52.3477V45.8231H86.9885Z" fill="#56BD82"/>
</g>
</g>
<rect x="0.5" y="0.5" width="93" height="93" rx="11.5" stroke="#EBEBEB"/>
<defs>
<clipPath id="clip0_0_353">
<rect width="80" height="47" fill="white" transform="translate(7 27)"/>
</clipPath>
</defs>
</svg>
