<svg width="94" height="94" viewBox="0 0 94 94" fill="none" xmlns="http://www.w3.org/2000/svg">
<rect x="0.5" y="0.5" width="93" height="93" rx="11.5" fill="white"/>
<path fill-rule="evenodd" clip-rule="evenodd" d="M74.0194 36.0641C74.0194 35.3299 73.367 34.6776 72.5511 34.6776H70.5094C69.6935 34.6776 69.0402 35.3299 69.0402 36.0641L69.1229 57.9425C69.1213 58.1251 69.156 58.3061 69.2251 58.4751C69.2942 58.644 69.3963 58.7975 69.5254 58.9266C69.6544 59.0557 69.8079 59.1577 69.9769 59.2268C70.1458 59.2959 70.3269 59.3307 70.5094 59.329H72.5511C73.367 59.329 74.0194 58.6767 74.0194 57.9425V36.0641Z" fill="#005695"/>
<path fill-rule="evenodd" clip-rule="evenodd" d="M76.6326 36.7173V37.694C76.6326 38.1828 76.9597 38.5099 77.4485 38.5099H91.8154C92.1369 38.5016 92.4429 38.3702 92.6703 38.1428C92.8977 37.9154 93.0291 37.6094 93.0374 37.2879V35.5743C93.0374 34.921 92.4659 34.2686 91.8154 34.3523C91.8154 34.3523 77.9382 35.7388 77.4485 35.8206C76.9587 35.8206 76.6326 36.2285 76.6326 36.7183V36.7173Z" fill="#005695"/>
<path fill-rule="evenodd" clip-rule="evenodd" d="M64.9587 59.3291C61.367 59.3291 59.1627 56.636 59.1627 53.6157V44.8803H58.1014C57.6117 44.8803 57.121 44.3906 57.121 43.9008V42.4307C57.1254 42.1724 57.2302 41.9259 57.4132 41.7436C57.5962 41.5613 57.8431 41.4574 58.1014 41.454H59.1627V36.0641C59.161 35.8814 59.1958 35.7003 59.265 35.5312C59.3341 35.3621 59.4362 35.2085 59.5654 35.0794C59.6946 34.9502 59.8482 34.8481 60.0172 34.7789C60.1863 34.7098 60.3674 34.675 60.5501 34.6766H62.5908C63.325 34.6766 63.8965 35.329 63.8965 36.0641V41.454H67.0803C67.2098 41.449 67.339 41.4708 67.4598 41.5181C67.5805 41.5655 67.6901 41.6372 67.7817 41.729C67.8734 41.8207 67.9451 41.9304 67.9923 42.0511C68.0395 42.1719 68.0612 42.3011 68.056 42.4307V43.898C68.0526 44.1567 67.9483 44.4039 67.7653 44.5869C67.5824 44.7698 67.3352 44.8741 67.0765 44.8775H63.8965V52.9615C63.8965 54.5116 64.8769 55.6556 66.5905 55.6556H66.9177C67.0583 55.651 67.1983 55.6753 67.3291 55.727C67.46 55.7787 67.5788 55.8567 67.6783 55.9562C67.7777 56.0557 67.8557 56.1745 67.9075 56.3053C67.9592 56.4362 67.9835 56.5762 67.9789 56.7168V58.2678C67.9741 58.5478 67.8607 58.8149 67.6627 59.0129C67.4648 59.2109 67.1976 59.3242 66.9177 59.3291H64.9587Z" fill="#005695"/>
<path fill-rule="evenodd" clip-rule="evenodd" d="M40.4689 50.102C40.4689 45.45 37.694 40.796 31.4082 40.796C25.6122 40.796 22.4284 45.3663 22.4284 50.102C22.4284 55.163 25.8566 59.6534 31.4891 59.6534C35.3261 59.6534 39.0814 57.6944 39.8156 54.348C39.8974 53.94 39.5712 53.2867 38.9987 53.2867H36.2238C35.9926 53.2843 35.7648 53.3435 35.564 53.4581C35.3631 53.5727 35.1963 53.7388 35.0808 53.9391C34.2639 55.084 33.1218 55.6565 31.49 55.6565C29.0413 55.6565 27.4085 53.7765 27.245 51.6568H38.916C39.9782 51.6568 40.4679 51.0853 40.4679 50.1048L40.4689 50.102ZM27.3258 48.1468C27.4894 46.1061 29.2848 44.5551 31.4082 44.5551C33.6125 44.5551 35.4079 46.1061 35.6533 48.1468H27.3258Z" fill="#005695"/>
<path fill-rule="evenodd" clip-rule="evenodd" d="M93.53 50.102C93.53 45.45 90.7551 40.796 84.4684 40.796C78.6724 40.796 75.4895 45.3663 75.4895 50.102C75.4895 55.163 78.9186 59.6534 84.5511 59.6534C88.3873 59.6534 92.1416 57.6944 92.8767 54.348C92.9594 53.94 92.6314 53.2867 92.0608 53.2867H89.2859C89.0545 53.2843 88.8266 53.3434 88.6256 53.458C88.4245 53.5726 88.2576 53.7387 88.1419 53.9391C87.326 55.084 86.183 55.6565 84.4684 55.6565C82.1015 55.6565 80.4687 53.7765 80.3051 51.6568H91.979C93.0403 51.6568 93.53 51.0853 93.53 50.1048V50.102ZM80.3879 48.1468C80.5505 46.1061 82.344 44.556 84.4684 44.556C86.6727 44.556 88.469 46.107 88.6326 48.1478L80.3879 48.1468Z" fill="#005695"/>
<path fill-rule="evenodd" clip-rule="evenodd" d="M55.2447 34.921H17.5301C17.3264 34.921 17.1248 34.9611 16.9367 35.0391C16.7485 35.117 16.5776 35.2313 16.4337 35.3753C16.2897 35.5194 16.1756 35.6903 16.0977 35.8785C16.0199 36.0667 15.9799 36.2683 15.98 36.472L16.0608 51.3296C16.0608 51.3296 7.97684 36.6355 7.57076 35.9005C7.32113 35.4749 6.96381 35.1226 6.53477 34.8791C6.10573 34.6355 5.6201 34.5093 5.12676 34.513H2.02476C1.82065 34.5124 1.61843 34.5521 1.4297 34.6298C1.24097 34.7076 1.06946 34.8218 0.924999 34.966C0.780539 35.1102 0.665981 35.2815 0.587901 35.4701C0.50982 35.6587 0.469754 35.8609 0.470002 36.065V57.779C0.470002 58.6767 1.128 59.33 2.021 59.33H3.97996C4.87766 59.33 5.53096 58.6767 5.53096 57.779L5.452 42.5961C5.452 42.5961 13.615 57.371 14.0239 57.9425C14.4318 58.7584 15.2459 59.33 16.3908 59.33H19.2474C20.1451 59.33 20.7984 58.6767 20.7984 57.779V38.5964H55.2447C55.5246 38.5913 55.7916 38.4779 55.9896 38.2799C56.1875 38.082 56.3009 37.815 56.306 37.5351V35.9832C56.3014 35.7032 56.1883 35.436 55.9905 35.2378C55.7927 35.0397 55.5256 34.9261 55.2457 34.921H55.2447Z" fill="#005695"/>
<path fill-rule="evenodd" clip-rule="evenodd" d="M49.1216 44.3906C50.7544 44.3906 51.9792 44.9621 52.4689 46.0224C52.6325 46.5131 53.0404 46.5949 53.612 46.5949H55.898C56.2252 46.5949 56.714 46.2677 56.714 45.7789C56.714 43.1667 53.5302 40.7969 49.1225 40.7969C44.556 40.796 41.5311 43.0022 41.5311 46.436C41.5311 49.13 43.6536 50.682 46.1841 51.418C47.4061 51.6633 49.4487 52.1521 50.4282 52.4793C51.4077 52.7246 52.3871 53.0508 52.3871 53.9485C52.3871 55.4177 50.9179 55.8285 49.2034 55.8285C47.6524 55.8285 46.1014 55.1705 45.6934 54.0331C45.449 53.3751 44.9583 53.2989 44.306 53.2989H42.018C41.61 53.2989 41.1203 53.706 41.1203 54.1957V54.5228C41.1203 57.0533 44.5494 59.6656 49.2833 59.6656C52.5488 59.6656 57.2018 58.2781 57.2018 53.8686C57.2018 51.2563 55.4873 49.4619 52.6306 48.7277C51.5684 48.4824 48.9571 47.7473 48.3856 47.6646C47.3234 47.3384 46.3448 47.0122 46.3448 46.1963C46.3448 44.8089 47.5668 44.4 49.1197 44.4L49.1216 44.3906Z" fill="#005695"/>
<rect x="0.5" y="0.5" width="93" height="93" rx="11.5" stroke="#EBEBEB"/>
</svg>
