<svg width="94" height="94" viewBox="0 0 94 94" fill="none" xmlns="http://www.w3.org/2000/svg">
<rect x="0.5" y="0.5" width="93" height="93" rx="11.5" fill="white"/>
<g clip-path="url(#clip0_0_416)">
<path d="M7 7H87V87H7V7Z" fill="#C7001D"/>
<path d="M49.5791 67.6922C49.5791 67.8021 49.592 67.9051 49.6177 68.001C49.6458 68.0946 49.6855 68.1764 49.737 68.2466C49.7885 68.3144 49.8528 68.3683 49.93 68.408C50.0072 68.4477 50.0949 68.4676 50.1931 68.4676C50.2772 68.4686 50.3606 68.4531 50.4387 68.422C50.5135 68.3893 50.5791 68.3425 50.6352 68.2817C50.6914 68.2209 50.7346 68.1472 50.7651 68.0606C50.7978 67.9718 50.8142 67.87 50.8142 67.7554C50.8195 67.6481 50.8101 67.5407 50.7861 67.4361C50.7627 67.3354 50.7253 67.2477 50.6738 67.1729C50.6229 67.0986 50.5541 67.0383 50.4738 66.9975C50.3943 66.953 50.3008 66.9308 50.1931 66.9308C50.1026 66.9295 50.0133 66.9512 49.9335 66.994C49.8579 67.0343 49.7921 67.0906 49.7405 67.1589C49.6865 67.2317 49.6461 67.3138 49.6212 67.401C49.5931 67.4922 49.5791 67.5893 49.5791 67.6922ZM49.5791 68.608H49.3686V66.0817H49.5791V67.0817C49.6469 66.9694 49.7394 66.8852 49.8563 66.8291C49.9718 66.7714 50.0991 66.7414 50.2282 66.7413C50.3662 66.7413 50.4855 66.7683 50.5861 66.822C50.6859 66.871 50.7726 66.9432 50.8387 67.0326C50.9087 67.1234 50.96 67.2271 50.9896 67.3378C51.0223 67.4547 51.0387 67.5764 51.0387 67.7027C51.0387 67.8361 51.0236 67.9613 50.9931 68.0782C50.9627 68.1951 50.9135 68.2968 50.8458 68.3834C50.7785 68.469 50.6919 68.5376 50.5931 68.5834C50.4903 68.6326 50.3651 68.6571 50.2177 68.6571C50.1592 68.6571 50.0995 68.649 50.0387 68.6326C49.9767 68.6157 49.9167 68.5922 49.8598 68.5624C49.8029 68.5314 49.7498 68.4937 49.7019 68.4501C49.6549 68.4029 49.6158 68.3484 49.5861 68.2887H49.5791V68.608ZM51.475 69.1027L51.5592 69.1168C51.5896 69.1214 51.6199 69.1238 51.6504 69.1238C51.7089 69.1238 51.7568 69.1051 51.7942 69.0676C51.8317 69.0302 51.862 68.9846 51.8855 68.9308C51.9117 68.878 51.9328 68.8227 51.9486 68.7659C51.9651 68.7098 51.9837 68.6618 52.0048 68.622L51.2995 66.7905H51.5346L52.1171 68.3519L52.6995 66.7905H52.9276L52.2504 68.5834C52.2083 68.6981 52.1673 68.801 52.1276 68.8922C52.0901 68.9834 52.0493 69.0606 52.0048 69.1238C51.9627 69.1893 51.9147 69.2385 51.8609 69.2712C51.8094 69.3062 51.7475 69.3238 51.675 69.3238C51.6375 69.3238 51.6013 69.3214 51.5662 69.3168C51.5355 69.3125 51.505 69.3066 51.475 69.2992V69.1027ZM56.234 68.2712H56.241L56.7919 66.0817H57.0375L56.3743 68.608H56.1112L55.5252 66.3764H55.5182L54.9322 68.608H54.6691L54.0164 66.0817H54.255L54.7989 68.2712H54.8059L55.3919 66.0817H55.6585L56.234 68.2712ZM57.3697 68.608V66.0817H59.0504V66.2852H57.6083V67.1975H58.91V67.401H57.6083V68.4045H59.0855V68.608H57.3697ZM59.5041 68.608V66.0817H59.8691L60.6971 68.3098H60.7041L61.5182 66.0817H61.8796V68.608H61.641V66.3554H61.634L60.8059 68.608H60.5813L59.7498 66.3554H59.7427V68.608H59.5041ZM62.2059 68.608L63.1989 66.0817H63.4691L64.4375 68.608H64.1919L63.9006 67.815H62.7498L62.4515 68.608H62.2059ZM62.8305 67.6115H63.8199L63.3252 66.2852L62.8305 67.6115ZM34.0956 62.2011H31.7079L31.3426 62.994H29.5965V62.7667L32.5276 56.5439H33.2938L36.1935 62.7667V62.994H34.4698L34.0956 62.2011ZM32.9018 59.261L32.2425 60.8024H33.5655L32.9018 59.261ZM41.9854 56.6062V61.4973H44.2974V62.994H40.3194V56.6062H41.9854ZM53.1785 62.2011H50.791L50.4257 62.994H48.6796V62.7667L51.6107 56.5439H52.3768L55.2766 62.7667V62.994H53.5527L53.1785 62.2011ZM51.9848 59.261L51.3255 60.8024H52.6486L51.9848 59.261ZM61.023 58.0672H59.455V56.6062H64.199V58.0672H62.64V62.994H61.023V58.0672ZM26.5088 52.193H47.7057C48.123 52.193 48.3944 51.7538 48.2079 51.3805L47.7719 50.5088L46.8597 48.8947L46.8126 48.8164C46.7628 48.7333 46.6922 48.6645 46.6078 48.6167C46.5235 48.569 46.4282 48.5439 46.3312 48.5439H32.8945C32.4602 48.5439 32.1903 48.0719 32.4108 47.6975L41.1862 32.798C41.4027 32.4307 41.9335 32.429 42.152 32.7951L53.5735 51.9194C53.6233 52.0028 53.6939 52.0719 53.7784 52.1198C53.8628 52.1678 53.9583 52.193 54.0554 52.193H67.0801C67.5123 52.193 67.7825 51.725 67.5663 51.3509L52.0042 24.4035C51.9549 24.3182 51.8841 24.2473 51.7987 24.198C51.7134 24.1487 51.6166 24.1228 51.518 24.1228H48.7276C48.2992 24.1228 48.0286 24.5833 48.2373 24.9576L60.9206 47.709C61.1293 48.0834 60.8587 48.5439 60.4303 48.5439H56.2348C56.1367 48.5439 56.0402 48.5181 55.9551 48.4692C55.87 48.4203 55.7993 48.3499 55.7499 48.2651L42.2501 25.1033C42.2007 25.0185 42.13 24.9481 42.0449 24.8992C41.9598 24.8503 41.8633 24.8245 41.7652 24.8246H41.7088C41.6106 24.8246 41.5141 24.8503 41.4289 24.8993C41.3438 24.9483 41.273 25.0187 41.2236 25.1036L26.0236 51.2199C25.9736 51.3057 25.9473 51.4031 25.9474 51.5023V51.6316C25.9474 51.7805 26.0065 51.9233 26.1118 52.0285C26.2171 52.1338 26.3599 52.193 26.5088 52.193Z" fill="white"/>
</g>
<rect x="0.5" y="0.5" width="93" height="93" rx="11.5" stroke="#EBEBEB"/>
<defs>
<clipPath id="clip0_0_416">
<rect width="80" height="80" fill="white" transform="translate(7 7)"/>
</clipPath>
</defs>
</svg>
